<?xml version="1.0" encoding="UTF-8" standalone="no"?>
<!-- Created with Inkscape (http://www.inkscape.org/) -->

<svg
   width="25.399811mm"
   height="25.398281mm"
   viewBox="0 0 25.399812 25.398281"
   version="1.1"
   id="svg39293"
   sodipodi:docname="about.svg"
   inkscape:version="1.1.2 (0a00cf5339, 2022-02-04)"
   xmlns:inkscape="http://www.inkscape.org/namespaces/inkscape"
   xmlns:sodipodi="http://sodipodi.sourceforge.net/DTD/sodipodi-0.dtd"
   xmlns="http://www.w3.org/2000/svg"
   xmlns:svg="http://www.w3.org/2000/svg">
  <sodipodi:namedview
     id="namedview39295"
     pagecolor="#505050"
     bordercolor="#eeeeee"
     borderopacity="1"
     inkscape:pageshadow="0"
     inkscape:pageopacity="0"
     inkscape:pagecheckerboard="0"
     inkscape:document-units="mm"
     showgrid="false"
     fit-margin-top="0"
     fit-margin-left="0"
     fit-margin-right="0"
     fit-margin-bottom="0"
     inkscape:zoom="6.1005612"
     inkscape:cx="40.651998"
     inkscape:cy="49.011885"
     inkscape:window-width="1920"
     inkscape:window-height="1018"
     inkscape:window-x="0"
     inkscape:window-y="36"
     inkscape:window-maximized="1"
     inkscape:current-layer="layer1" />
  <defs
     id="defs39290" />
  <g
     inkscape:label="Layer 1"
     inkscape:groupmode="layer"
     id="layer1"
     transform="translate(-123.61491,-139.1841)">
    <path
       id="path1691"
       style="fill:#ffffff;fill-opacity:1;stroke:none;stroke-width:0;stroke-linecap:round;stroke-linejoin:round;stroke-miterlimit:4;stroke-dasharray:none;stroke-opacity:1"
       d="m 136.31488,139.1841 c -0.60791,2e-5 -1.20569,0.0445 -1.7911,0.12816 -0.0105,0.001 -0.021,0.003 -0.0315,0.004 -0.58131,0.0846 -1.15,0.20912 -1.70326,0.37052 -0.0367,0.0108 -0.0734,0.0219 -0.11007,0.0331 -0.5193,0.15668 -1.02497,0.34526 -1.51412,0.56482 -0.088,0.0397 -0.17548,0.0803 -0.26252,0.12196 -0.41844,0.1995 -0.82462,0.42086 -1.21646,0.66352 -0.17017,0.10558 -0.33782,0.21516 -0.50281,0.32866 -0.28886,0.19836 -0.56919,0.40842 -0.84026,0.62942 -0.24783,0.20188 -0.48795,0.41305 -0.71985,0.63304 -0.16712,0.1585 -0.32999,0.32104 -0.48835,0.48834 -0.31238,0.32986 -0.60685,0.67625 -0.88211,1.03767 -0.0476,0.0624 -0.0946,0.12534 -0.14108,0.18862 -0.33927,0.46151 -0.64693,0.94544 -0.92087,1.44849 -0.004,0.007 -0.008,0.0148 -0.0124,0.0222 -1.01477,1.85125 -1.55203,3.92626 -1.56321,6.03736 0.0116,0.85888 0.11028,1.71437 0.29456,2.55333 0.10488,0.51159 0.24122,1.01622 0.40824,1.51102 1.2e-4,2.7e-4 2.7e-4,7.9e-4 5.3e-4,0.001 0.0653,0.19285 0.13563,0.38345 0.20981,0.57206 0.001,0.004 0.003,0.007 0.004,0.0109 0.1372,0.34691 0.28962,0.68762 0.45681,1.02112 0.10895,0.21768 0.22332,0.43249 0.34417,0.64286 2.6e-4,5.3e-4 7.9e-4,0.001 0.001,0.002 0.15599,0.27167 0.32199,0.53746 0.49764,0.79685 0.28701,0.3863 0.47948,0.7121 0.79736,1.05369 2.32592,2.76898 5.80626,4.53357 9.68623,4.53357 4.23279,0.002 7.68482,-2.15605 9.84695,-4.6793 1.84482,-2.26525 2.85226,-5.09726 2.85251,-8.01869 -0.001,-5.56447 -3.62501,-10.48 -8.94002,-12.12743 -0.0992,-0.031 -0.19877,-0.0608 -0.29869,-0.0894 -0.0137,-0.004 -0.0276,-0.007 -0.0413,-0.0114 -0.10685,-0.0301 -0.2145,-0.0584 -0.32246,-0.0858 -0.06,-0.0153 -0.12013,-0.0301 -0.18035,-0.0444 -0.14869,-0.0354 -0.29843,-0.0682 -0.44907,-0.0982 -0.0425,-0.008 -0.085,-0.0168 -0.12764,-0.0248 -0.16415,-0.0309 -0.32929,-0.0587 -0.49558,-0.0832 -0.0279,-0.004 -0.0558,-0.008 -0.0837,-0.0119 -0.17597,-0.0247 -0.35307,-0.0462 -0.53124,-0.0636 -0.0207,-0.002 -0.0413,-0.003 -0.062,-0.005 -0.18398,-0.017 -0.36887,-0.0308 -0.555,-0.0398 -0.01,-2.6e-4 -0.0193,-7.9e-4 -0.0289,-10e-4 -0.19348,-0.009 -0.38783,-0.0139 -0.58343,-0.0139 z m 0.12299,4.79196 c 2.33232,-5e-5 4.22305,1.89068 4.223,4.22299 -2.4e-4,2.33212 -1.89088,4.22253 -4.223,4.22248 -2.33211,5e-5 -4.22276,-1.89036 -4.22299,-4.22248 -5e-5,-2.33231 1.89067,-4.22304 4.22299,-4.22299 z m 0,10.68358 c 2.87192,0.007 5.64,1.07474 7.77214,2.99878 -1.77247,2.43784 -4.64244,4.01733 -7.89461,4.01733 -3.18918,0 -6.01115,-1.51855 -7.79074,-3.87625 2.14672,-2.00814 4.97366,-3.12984 7.91321,-3.13986 z"
       sodipodi:nodetypes="scccccccccccccscccsccccscccccccscccscccccccsscccccccscc" />
  </g>
</svg>
