<?xml version="1.0" encoding="UTF-8" standalone="no"?>
<!-- Created with Inkscape (http://www.inkscape.org/) -->

<svg
   width="23.71257mm"
   height="24.59297mm"
   viewBox="0 0 23.712571 24.59297"
   version="1.1"
   id="svg39293"
   sodipodi:docname="contact.svg"
   inkscape:version="1.1.2 (0a00cf5339, 2022-02-04)"
   xmlns:inkscape="http://www.inkscape.org/namespaces/inkscape"
   xmlns:sodipodi="http://sodipodi.sourceforge.net/DTD/sodipodi-0.dtd"
   xmlns="http://www.w3.org/2000/svg"
   xmlns:svg="http://www.w3.org/2000/svg">
  <sodipodi:namedview
     id="namedview39295"
     pagecolor="#505050"
     bordercolor="#eeeeee"
     borderopacity="1"
     inkscape:pageshadow="0"
     inkscape:pageopacity="0"
     inkscape:pagecheckerboard="0"
     inkscape:document-units="mm"
     showgrid="false"
     fit-margin-top="0"
     fit-margin-left="0"
     fit-margin-right="0"
     fit-margin-bottom="0"
     inkscape:zoom="6.1005612"
     inkscape:cx="37.209692"
     inkscape:cy="46.717014"
     inkscape:window-width="1920"
     inkscape:window-height="1018"
     inkscape:window-x="0"
     inkscape:window-y="36"
     inkscape:window-maximized="1"
     inkscape:current-layer="layer1" />
  <defs
     id="defs39290" />
  <g
     inkscape:label="Layer 1"
     inkscape:groupmode="layer"
     id="layer1"
     transform="translate(-124.52768,-139.77777)">
    <path
       id="path37944"
       style="color:#ffffff;font-size:27.2176px;line-height:1.25;fill:#ffffff;stroke:none;stroke-width:1.07963;-inkscape-stroke:none"
       d="m 137.32393,139.77909 c -1.96633,0 -3.75354,0.33205 -5.3489,1.00601 -1.56788,0.65121 -2.91914,1.58464 -4.03187,2.79181 -2.8e-4,5.7e-4 2.8e-4,0.002 0,0.002 -0.001,0.001 -0.003,0.001 -0.004,0.002 -1.11066,1.18696 -1.95898,2.60142 -2.54021,4.22469 -0.58205,1.60597 -0.87127,3.34943 -0.87127,5.22013 0,2.33252 0.43962,4.36875 1.33626,6.08108 v 0.002 l 0.002,0.004 c 0.91572,1.68937 2.24707,3.00277 3.9528,3.90733 1.71074,0.9072 3.7487,1.3506 6.09006,1.3506 1.28602,0 2.46178,-0.12041 3.52953,-0.36516 1.06507,-0.22033 2.03071,-0.51051 2.89432,-0.87651 l 0.32776,-0.14062 v -3.13433 l -0.72194,0.27344 c -0.80208,0.30216 -1.73541,0.57974 -2.79715,0.82927 h -0.006 l -0.006,0.002 c -1.01428,0.26138 -2.08558,0.39296 -3.22044,0.39296 -2.73759,0 -4.73998,-0.73061 -6.1252,-2.15097 -1.38591,-1.4211 -2.09993,-3.47157 -2.09993,-6.2645 0,-1.99934 0.36925,-3.74495 1.09965,-5.26182 l 0.002,-0.002 c 0.74781,-1.53144 1.81558,-2.71235 3.23306,-3.57772 l 0.002,-0.002 c 1.42502,-0.85768 3.1806,-1.29614 5.30334,-1.29614 1.52673,0 2.86196,0.31311 4.03186,0.93264 h 0.002 v 0.002 c 1.18482,0.61793 2.09233,1.49963 2.75762,2.68287 l 0.004,0.004 0.002,0.004 c 0.67428,1.14971 1.02278,2.57817 1.02278,4.31917 0,0.9527 -0.11119,1.8211 -0.32775,2.60673 v 0.004 l -0.002,0.004 c -0.19671,0.7604 -0.48379,1.34552 -0.84437,1.77692 v 0.002 c -0.32139,0.38707 -0.64044,0.53798 -1.09381,0.53798 -0.35622,0 -0.62888,-0.10849 -0.90475,-0.35517 -0.14836,-0.14351 -0.35026,-0.66982 -0.35026,-1.6196 v -0.29403 c 0,-0.13351 0.007,-0.38406 0.0269,-0.73088 l 0.30909,-6.34231 -0.36727,-0.13839 c -0.51735,-0.19641 -1.18902,-0.35381 -2.0357,-0.49356 -10e-4,-2.7e-4 -0.003,-0.002 -0.004,-0.002 -0.83893,-0.16083 -1.69744,-0.24178 -2.57317,-0.24178 -1.33279,0 -2.52677,0.30668 -3.5438,0.92876 h -0.002 l -0.002,0.002 c -0.98671,0.61638 -1.76342,1.47859 -2.30526,2.55282 -2.7e-4,5.7e-4 2.9e-4,5.7e-4 0,0.002 -5.5e-4,8.5e-4 -0.002,0.001 -0.002,0.002 -0.54443,1.06168 -0.81143,2.28505 -0.81143,3.64276 0,1.72771 0.42449,3.1848 1.30498,4.2936 l 0.002,0.002 0.002,0.002 c 0.91059,1.11941 2.24148,1.69132 3.82653,1.69132 1.10604,0 2.07588,-0.27099 2.85481,-0.83426 0.52739,-0.38138 0.86046,-0.91698 1.21164,-1.43677 0.19067,0.46653 0.32648,0.95653 0.69339,1.34228 l 0.006,0.009 0.008,0.006 c 0.63013,0.61432 1.49368,0.91374 2.48149,0.91374 0.93354,0 1.78074,-0.23118 2.49191,-0.70365 l 0.006,-0.004 0.004,-0.002 c 0.67901,-0.47261 1.25227,-1.08795 1.71179,-1.82805 l 0.002,-0.002 0.002,-0.004 c 0.45549,-0.75459 0.78301,-1.59189 0.98766,-2.50224 1.9e-4,-8.6e-4 0.002,-0.001 0.002,-0.002 0.17738,-0.72118 0.23015,-1.46487 0.26517,-2.21155 h 0.0664 v -0.54414 c 0,-2.24112 -0.47244,-4.20593 -1.4318,-5.86098 v -0.002 c -0.93381,-1.64353 -2.23867,-2.92403 -3.88417,-3.80838 -1.64542,-0.88433 -3.5238,-1.32172 -5.60255,-1.32172 z m -0.31732,8.60833 c 0.37928,0 0.74792,0.0279 1.10623,0.0823 0.19955,0.0303 0.31958,0.0662 0.47489,0.10056 l -0.15153,3.20144 c -0.0743,1.24324 -0.34037,2.21916 -0.76365,2.93911 l -0.002,0.004 -0.002,0.004 c -0.37346,0.66167 -0.90144,0.95598 -1.84684,0.95598 -0.7056,0 -1.1872,-0.21426 -1.58935,-0.66585 -0.35351,-0.41679 -0.59347,-1.18694 -0.59347,-2.36328 0,-0.74275 0.11636,-1.44028 0.34642,-2.10318 v -0.002 l 0.002,-0.002 c 0.22088,-0.65367 0.57059,-1.16245 1.07055,-1.56738 0.46706,-0.37827 1.09142,-0.58415 1.9484,-0.58415 z" />
  </g>
</svg>
