<?xml version="1.0" encoding="UTF-8" standalone="no"?>
<!-- Created with Inkscape (http://www.inkscape.org/) -->

<svg
   width="17.91618mm"
   height="24.266632mm"
   viewBox="0 0 17.91618 24.266632"
   version="1.1"
   id="svg39293"
   sodipodi:docname="works.svg"
   inkscape:version="1.1.2 (0a00cf5339, 2022-02-04)"
   xmlns:inkscape="http://www.inkscape.org/namespaces/inkscape"
   xmlns:sodipodi="http://sodipodi.sourceforge.net/DTD/sodipodi-0.dtd"
   xmlns="http://www.w3.org/2000/svg"
   xmlns:svg="http://www.w3.org/2000/svg">
  <sodipodi:namedview
     id="namedview39295"
     pagecolor="#505050"
     bordercolor="#eeeeee"
     borderopacity="1"
     inkscape:pageshadow="0"
     inkscape:pageopacity="0"
     inkscape:pagecheckerboard="0"
     inkscape:document-units="mm"
     showgrid="false"
     fit-margin-top="0"
     fit-margin-left="0"
     fit-margin-right="0"
     fit-margin-bottom="0"
     inkscape:zoom="6.1005612"
     inkscape:cx="27.70237"
     inkscape:cy="43.930385"
     inkscape:window-width="1920"
     inkscape:window-height="1018"
     inkscape:window-x="0"
     inkscape:window-y="36"
     inkscape:window-maximized="1"
     inkscape:current-layer="layer1" />
  <defs
     id="defs39290" />
  <g
     inkscape:label="Layer 1"
     inkscape:groupmode="layer"
     id="layer1"
     transform="translate(-127.05124,-140.53026)">
    <path
       id="path38688"
       style="color:#ffffff;fill:#ffffff;stroke-width:0.765942;stroke-linecap:round;stroke-linejoin:round;-inkscape-stroke:none"
       d="m 134.03479,140.53115 a 0.60006002,0.60006002 0 0 0 -0.45785,0.1757 l -6.34949,6.34948 a 0.60000001,0.60000001 0 0 0 -0.17621,0.42375 0.60000001,0.60000001 0 0 0 0.17621,0.42374 0.60000001,0.60000001 0 0 0 0.42375,0.17622 h 6.35155 a 0.60006002,0.60006002 0 0 0 0.59945,-0.59996 v -6.34949 a 0.60006002,0.60006002 0 0 0 -0.37104,-0.55449 0.60006002,0.60006002 0 0 0 -0.19637,-0.045 z m 1.52032,0.21652 c 0.0311,0.12528 0.0468,0.25385 0.047,0.38292 v 6.34949 c -1.4e-4,0.88334 -0.71605,1.59947 -1.59939,1.5999 h -6.35155 c -0.12922,-0.001 -0.2578,-0.0184 -0.38292,-0.0506 v 15.38459 c 4e-5,0.21146 0.17146,0.38287 0.38292,0.38292 h 16.93333 c 0.21147,-5e-5 0.38288,-0.17146 0.38292,-0.38292 v -23.28334 c -4e-5,-0.21146 -0.17146,-0.38287 -0.38292,-0.38292 z m -2.15387,1.83193 v 4.30103 h -4.30103 z m 3.77548,3.24218 h 4.23436 c 0.33114,2.6e-4 0.59943,0.26882 0.59945,0.59996 -2.6e-4,0.33094 -0.26851,0.59914 -0.59945,0.59945 h -4.23436 c -0.33114,-2e-5 -0.59966,-0.26831 -0.59997,-0.59945 2e-5,-0.33134 0.26862,-0.59994 0.59997,-0.59996 z m -6.35,4.58628 h 10.58436 c 0.33094,2.7e-4 0.59914,0.26851 0.59945,0.59945 -2.6e-4,0.33094 -0.26851,0.59914 -0.59945,0.59945 h -10.58436 c -0.33094,-2.7e-4 -0.59915,-0.26851 -0.59945,-0.59945 2.6e-4,-0.33094 0.26851,-0.59914 0.59945,-0.59945 z m 0,4.58577 h 10.58436 c 0.33094,2.6e-4 0.59914,0.26851 0.59945,0.59945 -2e-5,0.33113 -0.26831,0.59965 -0.59945,0.59996 h -10.58436 c -0.33114,-2.7e-4 -0.59943,-0.26883 -0.59945,-0.59996 2.6e-4,-0.33094 0.26851,-0.59914 0.59945,-0.59945 z m 0,4.58577 h 10.58436 c 0.33114,2.6e-4 0.59943,0.26882 0.59945,0.59996 7.9e-4,0.33175 -0.2677,0.6012 -0.59945,0.60151 h -10.58436 c -0.33175,-2.6e-4 -0.60028,-0.26976 -0.59945,-0.60151 2e-5,-0.33114 0.26831,-0.59966 0.59945,-0.59996 z" />
  </g>
</svg>
